<?xml version="1.0" encoding="UTF-8"?>
<!DOCTYPE svg PUBLIC "-//W3C//DTD SVG 1.1//EN" "http://www.w3.org/Graphics/SVG/1.1/DTD/svg11.dtd">
<!-- Creator: CorelDRAW X6 -->
<svg xmlns="http://www.w3.org/2000/svg" xml:space="preserve" width="6in" height="4in" version="1.1" style="shape-rendering:geometricPrecision; text-rendering:geometricPrecision; image-rendering:optimizeQuality; fill-rule:evenodd; clip-rule:evenodd"
viewBox="0 0 6000 4000"
 xmlns:xlink="http://www.w3.org/1999/xlink">
 <defs>
  <style type="text/css">
   <![CDATA[
    .fil4 {fill:#EE3737;fill-rule:nonzero}
    .fil3 {fill:#EF4537;fill-rule:nonzero}
    .fil2 {fill:#F26B35;fill-rule:nonzero}
    .fil1 {fill:#F89E32;fill-rule:nonzero}
    .fil0 {fill:#FEBF2C;fill-rule:nonzero}
   ]]>
  </style>
 </defs>
 <g id="Layer_x0020_1">
  <metadata id="CorelCorpID_0Corel-Layer"/>
  <polygon class="fil0" points="0,4000 6000,4000 6000,0 0,0 "/>
  <polygon class="fil1" points="379,1018 0,807 0,788 "/>
  <polygon class="fil1" points="0,3984 461,3627 332,3735 0,3999 "/>
  <polygon class="fil1" points="1096,1258 0,497 0,465 413,754 0,441 0,434 "/>
  <polygon class="fil1" points="4319,1196 5828,455 6000,374 6000,399 4412,1155 "/>
  <polygon class="fil1" points="0,2732 359,2635 657,2564 0,2748 "/>
  <polygon class="fil1" points="1407,1230 621,471 160,0 161,0 1187,1001 "/>
  <polygon class="fil1" points="3265,1167 3928,469 4395,0 4460,0 "/>
  <polygon class="fil1" points="4158,1714 4579,1609 5100,1494 4468,1649 "/>
  <polygon class="fil1" points="2442,1209 2589,0 2636,0 "/>
  <polygon class="fil1" points="699,1942 0,1871 0,1844 "/>
  <polygon class="fil1" points="1973,1172 1537,0 1568,0 1827,727 "/>
  <polygon class="fil1" points="2663,814 2863,0 2896,0 "/>
  <polygon class="fil1" points="0,3514 114,3444 790,3054 0,3551 "/>
  <polygon class="fil1" points="0,3914 118,3822 325,3668 0,3929 "/>
  <polygon class="fil1" points="0,3160 426,2979 0,3165 "/>
  <polygon class="fil1" points="2610,1151 2891,162 2941,0 2948,0 2673,958 2689,909 "/>
  <polygon class="fil1" points="3297,1227 4578,0 4637,0 4066,540 4495,163 "/>
  <polygon class="fil1" points="4472,2119 4659,2114 4780,2115 "/>
  <polygon class="fil1" points="1678,4000 1658,4000 1744,3740 1647,4000 1645,4000 1934,3218 "/>
  <polygon class="fil2" points="1658,4000 1647,4000 1744,3740 "/>
  <polygon class="fil1" points="2026,1287 1827,727 1587,0 1601,0 1850,725 "/>
  <polygon class="fil2" points="1827,727 1568,0 1587,0 "/>
  <polygon class="fil1" points="4232,623 4454,441 4972,42 4635,316 4965,68 "/>
  <polygon class="fil1" points="3508,2030 6000,1762 6000,1858 "/>
  <polygon class="fil1" points="2579,60 2586,0 2588,0 "/>
  <polygon class="fil1" points="2177,4000 2159,4000 2162,3946 2206,3492 "/>
  <polygon class="fil1" points="2689,909 2985,0 2988,0 "/>
  <polygon class="fil2" points="2673,958 2948,0 2985,0 2689,909 "/>
  <polygon class="fil1" points="1486,1398 0,117 0,15 "/>
  <polygon class="fil1" points="3172,3826 3026,3549 2850,3188 2928,3335 "/>
  <polygon class="fil1" points="3394,1647 3435,1628 6000,512 6000,530 "/>
  <polygon class="fil1" points="1204,273 1043,14 1035,0 1049,0 "/>
  <polygon class="fil1" points="599,1511 0,1304 0,1279 "/>
  <polygon class="fil1" points="894,4000 876,4000 1402,3300 902,3916 1648,2991 923,3963 "/>
  <polygon class="fil1" points="1748,959 1344,154 1271,0 1280,0 1650,744 "/>
  <polygon class="fil1" points="4086,1112 4224,1028 6000,43 6000,55 "/>
  <polygon class="fil1" points="0,2557 440,2484 0,2574 "/>
  <polygon class="fil1" points="1202,99 1146,0 1146,0 "/>
  <polygon class="fil1" points="3560,630 3974,110 4067,0 4078,0 3701,465 "/>
  <polygon class="fil1" points="1604,194 1535,0 1536,0 "/>
  <polygon class="fil1" points="129,4000 113,4000 588,3592 656,3536 "/>
  <polygon class="fil1" points="4351,4000 4351,4000 4073,3755 4330,4000 4298,4000 3626,3354 "/>
  <polygon class="fil1" points="4091,1579 4258,1523 6000,998 6000,1020 "/>
  <polygon class="fil1" points="651,4000 633,4000 1093,3475 597,4000 580,4000 1553,2970 "/>
  <polygon class="fil1" points="964,4000 961,4000 992,3959 "/>
  <polygon class="fil1" points="3616,1686 4646,1308 4839,1243 3656,1672 "/>
  <polygon class="fil1" points="3165,1035 3592,462 3819,176 3296,872 "/>
  <polygon class="fil1" points="1127,1233 201,554 0,398 0,338 "/>
  <polygon class="fil1" points="0,2985 375,2854 0,3001 "/>
  <polygon class="fil1" points="1795,1036 1658,759 1317,0 1333,0 "/>
  <polygon class="fil1" points="0,3232 220,3126 0,3234 "/>
  <polygon class="fil1" points="1402,2070 0,1995 0,1941 "/>
  <polygon class="fil1" points="4072,1801 4644,1682 6000,1442 6000,1473 "/>
  <polygon class="fil1" points="4461,1714 4846,1631 5297,1544 4644,1682 "/>
  <polygon class="fil2" points="4644,1682 5297,1544 6000,1410 6000,1442 "/>
  <polygon class="fil1" points="5140,1692 6000,1540 6000,1574 "/>
  <polygon class="fil1" points="2198,4000 2182,4000 2218,3569 "/>
  <polygon class="fil1" points="2347,1162 2368,0 2376,0 2356,977 2394,317 2394,328 "/>
  <polygon class="fil1" points="493,4000 464,4000 859,3613 "/>
  <polygon class="fil1" points="1622,4000 1582,4000 1947,3093 "/>
  <polygon class="fil1" points="410,1638 177,1582 0,1532 0,1524 46,1535 "/>
  <polygon class="fil1" points="210,1141 0,1047 0,1037 "/>
  <polygon class="fil2" points="2356,977 2376,0 2404,0 2394,317 "/>
  <polygon class="fil1" points="1576,4000 1560,4000 1719,3621 "/>
  <polygon class="fil1" points="6000,3635 3745,2699 6000,3536 "/>
  <polygon class="fil1" points="4147,1045 4620,752 5758,94 4827,658 "/>
  <polygon class="fil1" points="6000,3961 5271,3612 4523,3225 4906,3405 6000,3960 "/>
  <polygon class="fil1" points="0,2816 122,2778 0,2811 0,2787 1178,2467 0,2835 "/>
  <polygon class="fil1" points="6000,2596 4736,2445 3670,2298 4362,2367 6000,2575 "/>
  <polygon class="fil1" points="459,4000 390,4000 1324,3111 "/>
  <polygon class="fil1" points="2794,4000 2775,4000 2667,3536 "/>
  <polygon class="fil1" points="3611,1717 4667,1355 6000,927 6000,936 4866,1319 4258,1523 "/>
  <polygon class="fil2" points="4258,1523 4866,1319 4559,1423 6000,996 6000,998 "/>
  <polygon class="fil1" points="0,2216 338,2210 300,2212 0,2219 "/>
  <polygon class="fil1" points="3625,1820 3857,1759 5469,1388 4579,1609 "/>
  <polygon class="fil2" points="4579,1609 5469,1388 6000,1266 6000,1274 5100,1494 "/>
  <polygon class="fil1" points="0,2621 909,2441 315,2582 0,2647 "/>
  <polygon class="fil1" points="5198,2509 3448,2296 3323,2277 4736,2445 "/>
  <polygon class="fil2" points="6000,2606 5198,2509 4736,2445 6000,2596 "/>
  <polygon class="fil1" points="283,4000 270,4000 445,3846 "/>
  <polygon class="fil1" points="1516,1065 695,0 733,0 1248,687 "/>
  <polygon class="fil1" points="0,2657 315,2582 759,2490 0,2678 "/>
  <polygon class="fil2" points="0,2647 315,2582 0,2657 "/>
  <polygon class="fil1" points="2070,4000 2061,4000 2096,3766 "/>
  <polygon class="fil1" points="4965,68 5055,0 5055,0 "/>
  <polygon class="fil2" points="4635,316 4972,42 5027,0 5055,0 4965,68 "/>
  <polygon class="fil1" points="4277,950 5786,0 5832,0 4620,752 "/>
  <polygon class="fil2" points="4620,752 5832,0 5913,0 5758,94 "/>
  <polygon class="fil1" points="3977,4000 3916,4000 3146,3088 "/>
  <polygon class="fil1" points="2836,74 2853,0 2856,0 "/>
  <polygon class="fil1" points="3142,471 3366,0 3388,0 "/>
  <polygon class="fil1" points="1294,540 935,0 964,0 "/>
  <polygon class="fil2" points="413,754 0,465 0,441 "/>
  <polygon class="fil1" points="5905,4000 5867,4000 4430,3263 4148,3107 5653,3865 "/>
  <polygon class="fil1" points="3809,4000 3809,4000 3760,3941 "/>
  <polygon class="fil1" points="4458,1541 5072,1359 6000,1114 6000,1146 "/>
  <polygon class="fil1" points="1207,2110 0,2104 0,2102 990,2106 0,2064 0,2058 "/>
  <polygon class="fil1" points="1207,728 613,0 658,0 "/>
  <polygon class="fil1" points="0,3288 134,3225 9,3290 0,3294 "/>
  <polygon class="fil1" points="2817,1170 3403,0 3413,0 2895,1028 2902,1016 "/>
  <polygon class="fil1" points="4805,1429 6000,1065 6000,1083 5072,1359 "/>
  <polygon class="fil2" points="5072,1359 6000,1083 6000,1114 "/>
  <polygon class="fil1" points="6000,2449 5380,2386 6000,2425 "/>
  <polygon class="fil1" points="2994,1416 4285,0 4326,0 3450,948 3785,612 "/>
  <polygon class="fil1" points="0,3588 476,3299 0,3613 "/>
  <polygon class="fil1" points="6000,3162 5350,2990 4444,2742 3470,2455 6000,3098 "/>
  <polygon class="fil1" points="4614,897 6000,117 6000,185 "/>
  <polygon class="fil1" points="1688,970 1202,99 1289,253 1158,0 1194,0 "/>
  <polygon class="fil2" points="1289,253 1202,99 1146,0 1158,0 "/>
  <polygon class="fil1" points="1497,254 1382,0 1393,0 "/>
  <polygon class="fil1" points="4528,4000 4498,4000 4116,3664 "/>
  <polygon class="fil1" points="3764,1124 5312,0 5443,0 "/>
  <polygon class="fil1" points="3796,4000 3761,4000 3177,3231 3760,3941 3635,3791 "/>
  <polygon class="fil2" points="3809,4000 3796,4000 3635,3791 3760,3941 "/>
  <polygon class="fil1" points="178,1781 0,1755 0,1748 "/>
  <polygon class="fil1" points="2243,1035 2159,0 2199,0 "/>
  <polygon class="fil1" points="3491,1733 3656,1672 4535,1387 5015,1236 4667,1355 "/>
  <polygon class="fil2" points="4535,1387 5210,1169 5015,1236 "/>
  <polygon class="fil2" points="3656,1672 4839,1243 6000,851 6000,858 4439,1418 4535,1387 "/>
  <polygon class="fil3" points="4439,1418 6000,858 6000,898 5210,1169 4535,1387 "/>
  <polygon class="fil2" points="4667,1355 5015,1236 6000,924 6000,927 "/>
  <polygon class="fil3" points="5015,1236 5210,1169 6000,913 6000,924 "/>
  <polygon class="fil4" points="5210,1169 6000,898 6000,913 "/>
  <polygon class="fil1" points="3340,1878 5754,1225 5057,1421 6000,1194 6000,1200 3857,1759 "/>
  <polygon class="fil2" points="3857,1759 6000,1200 6000,1209 5108,1447 6000,1245 6000,1256 5469,1388 "/>
  <polygon class="fil3" points="5469,1388 6000,1256 6000,1266 "/>
  <polygon class="fil1" points="576,844 0,432 0,406 201,554 "/>
  <polygon class="fil2" points="201,554 0,406 0,398 "/>
  <polygon class="fil1" points="3244,828 3811,0 3826,0 3668,231 3839,0 3841,0 3538,431 "/>
  <polygon class="fil2" points="3668,231 3826,0 3839,0 "/>
  <polygon class="fil1" points="0,2756 341,2670 0,2770 "/>
  <polygon class="fil2" points="633,4000 597,4000 1093,3475 "/>
  <polygon class="fil1" points="4243,4000 4188,4000 3498,3298 "/>
  <polygon class="fil1" points="2305,4000 2289,4000 2300,3582 "/>
  <polygon class="fil1" points="2500,1252 2744,0 2752,0 2522,1159 "/>
  <polygon class="fil1" points="486,857 0,530 0,502 "/>
  <polygon class="fil1" points="0,2516 193,2481 0,2508 0,2484 1434,2279 0,2540 "/>
  <polygon class="fil2" points="0,2508 193,2481 0,2516 "/>
  <polygon class="fil1" points="2504,1250 2522,1159 2794,0 2802,0 "/>
  <polygon class="fil2" points="2522,1159 2752,0 2758,0 2653,538 2779,0 2794,0 "/>
  <polygon class="fil1" points="5689,3119 3849,2600 3343,2440 4444,2742 4814,2851 "/>
  <polygon class="fil2" points="5350,2990 4746,2831 4814,2851 4444,2742 "/>
  <polygon class="fil1" points="3687,77 3736,0 3740,0 "/>
  <polygon class="fil1" points="6000,3691 4223,2954 3869,2796 6000,3652 "/>
  <polygon class="fil1" points="0,2245 147,2236 0,2240 0,2229 300,2212 706,2203 0,2245 "/>
  <polygon class="fil2" points="0,2219 300,2212 0,2229 "/>
  <polygon class="fil1" points="2755,602 2916,0 2937,0 2891,162 "/>
  <polygon class="fil2" points="2891,162 2937,0 2941,0 "/>
  <polygon class="fil1" points="3574,1323 5544,0 5569,0 4740,561 5641,0 5716,0 "/>
  <polygon class="fil1" points="1256,1068 1187,1001 227,0 241,0 "/>
  <polygon class="fil2" points="1187,1001 161,0 163,0 175,12 164,0 227,0 "/>
  <polygon class="fil1" points="46,189 0,151 0,148 "/>
  <polygon class="fil1" points="1670,785 1650,744 1634,710 1658,759 "/>
  <polygon class="fil2" points="1650,744 1280,0 1285,0 1634,710 "/>
  <polygon class="fil2" points="1658,759 1634,710 1312,0 1317,0 "/>
  <polygon class="fil3" points="1634,710 1285,0 1312,0 "/>
  <polygon class="fil1" points="4495,163 4680,0 4682,0 "/>
  <polygon class="fil2" points="4066,540 4637,0 4680,0 4495,163 "/>
  <polygon class="fil1" points="2102,758 1972,0 2002,0 "/>
  <polygon class="fil1" points="306,1835 0,1794 0,1783 "/>
  <polygon class="fil1" points="694,546 118,0 133,0 621,471 "/>
  <polygon class="fil2" points="621,471 133,0 160,0 "/>
  <polygon class="fil1" points="2952,4000 2918,4000 2898,3941 2915,4000 2914,4000 2628,3086 "/>
  <polygon class="fil2" points="2918,4000 2915,4000 2898,3941 "/>
  <polygon class="fil1" points="4170,4000 4131,4000 3630,3473 "/>
  <polygon class="fil1" points="3457,723 4021,0 4062,0 3974,110 "/>
  <polygon class="fil2" points="3974,110 4062,0 4067,0 "/>
  <polygon class="fil1" points="3771,2048 6000,1871 6000,1876 4917,1967 6000,1917 6000,1956 "/>
  <polygon class="fil2" points="4917,1967 6000,1876 6000,1917 "/>
  <polygon class="fil2" points="4866,1319 6000,936 6000,940 "/>
  <polygon class="fil3" points="4559,1423 4866,1319 6000,940 6000,996 "/>
  <polygon class="fil1" points="6000,3806 3460,2638 4223,2954 6000,3747 "/>
  <polygon class="fil2" points="6000,3747 4223,2954 6000,3691 6000,3694 4831,3218 6000,3746 "/>
  <polygon class="fil3" points="6000,3746 4831,3218 6000,3694 "/>
  <polygon class="fil1" points="5951,4000 5920,4000 5653,3865 4568,3287 4948,3471 "/>
  <polygon class="fil2" points="5920,4000 5905,4000 5653,3865 "/>
  <polygon class="fil1" points="902,4000 895,4000 923,3963 1001,3864 "/>
  <polygon class="fil2" points="895,4000 894,4000 923,3963 "/>
  <polygon class="fil1" points="3397,1907 4809,1582 6000,1337 6000,1381 4846,1631 "/>
  <polygon class="fil2" points="4846,1631 6000,1381 6000,1397 5297,1544 "/>
  <polygon class="fil3" points="5297,1544 6000,1397 6000,1410 "/>
  <polygon class="fil1" points="1949,666 1772,0 1787,0 1878,351 "/>
  <polygon class="fil3" points="175,12 163,0 164,0 "/>
  <polygon class="fil1" points="6000,2774 5142,2638 5193,2648 3987,2420 5087,2585 6000,2745 "/>
  <polygon class="fil1" points="0,3295 9,3290 161,3217 0,3302 "/>
  <polygon class="fil2" points="0,3294 9,3290 0,3295 "/>
  <polygon class="fil1" points="2160,949 2020,0 2057,0 "/>
  <polygon class="fil1" points="1195,1382 726,1079 0,580 0,542 "/>
  <polygon class="fil1" points="1551,4000 1551,4000 1552,3998 "/>
  <polygon class="fil1" points="3318,939 3701,465 4102,0 4139,0 "/>
  <polygon class="fil2" points="3701,465 4078,0 4102,0 "/>
  <polygon class="fil1" points="0,3416 1503,2597 910,2950 188,3353 940,2909 0,3417 "/>
  <polygon class="fil1" points="2840,966 3254,0 3299,0 "/>
  <polygon class="fil1" points="258,1907 0,1884 0,1874 "/>
  <polygon class="fil1" points="5555,4000 5364,4000 3262,2700 "/>
  <polygon class="fil2" points="0,3417 940,2909 188,3353 0,3458 "/>
  <polygon class="fil1" points="2024,4000 2020,4000 2031,3922 2017,4000 1995,4000 2130,3254 "/>
  <polygon class="fil2" points="2020,4000 2017,4000 2031,3922 "/>
  <polygon class="fil1" points="6000,2309 3447,2175 6000,2212 6000,2251 5365,2241 6000,2275 "/>
  <polygon class="fil2" points="6000,2275 5365,2241 6000,2251 "/>
  <polygon class="fil1" points="4232,2097 6000,2027 6000,2064 4969,2096 "/>
  <polygon class="fil1" points="86,4000 69,4000 826,3355 130,3904 332,3735 1533,2779 588,3592 "/>
  <polygon class="fil2" points="8,4000 0,4000 0,3999 332,3735 130,3904 "/>
  <polygon class="fil2" points="69,4000 66,4000 474,3651 33,4000 15,4000 130,3904 826,3355 "/>
  <polygon class="fil3" points="15,4000 8,4000 130,3904 "/>
  <polygon class="fil2" points="113,4000 86,4000 588,3592 "/>
  <polygon class="fil1" points="3243,942 3296,872 3999,0 4009,0 "/>
  <polygon class="fil2" points="3296,872 3819,176 3958,0 3999,0 "/>
  <polygon class="fil1" points="6000,3376 3232,2435 4920,2950 6000,3300 "/>
  <polygon class="fil1" points="6000,2807 5193,2648 6000,2801 "/>
  <polygon class="fil2" points="6000,2801 5193,2648 5142,2638 6000,2774 "/>
  <polygon class="fil1" points="841,725 254,184 67,0 69,0 109,37 72,0 113,0 "/>
  <polygon class="fil2" points="109,37 69,0 72,0 "/>
  <polygon class="fil1" points="6000,3918 4906,3405 4331,3113 6000,3882 "/>
  <polygon class="fil2" points="6000,3960 4906,3405 6000,3918 "/>
  <polygon class="fil2" points="0,2811 122,2778 0,2816 "/>
  <polygon class="fil1" points="3013,923 3524,0 3571,0 "/>
  <polygon class="fil1" points="2859,4000 2846,4000 2823,3926 2843,4000 2827,4000 2619,3217 "/>
  <polygon class="fil2" points="2846,4000 2843,4000 2823,3926 "/>
  <polygon class="fil1" points="3711,1014 3817,926 4918,62 4454,441 "/>
  <polygon class="fil2" points="4454,441 4918,62 4996,0 5024,0 4972,42 "/>
  <polygon class="fil3" points="4972,42 5024,0 5027,0 "/>
  <polygon class="fil3" points="66,4000 33,4000 474,3651 "/>
  <polygon class="fil1" points="2488,354 2516,0 2530,0 "/>
  <polygon class="fil1" points="2879,1088 3128,607 3463,0 3496,0 "/>
  <polygon class="fil1" points="3427,4000 3394,4000 2762,2892 3076,3397 "/>
  <polygon class="fil1" points="2278,4000 2269,4000 2278,3770 "/>
  <polygon class="fil1" points="1415,4000 1365,4000 1913,2940 "/>
  <polygon class="fil1" points="2382,1199 2440,167 2453,0 2492,0 2490,21 2492,0 2493,0 2488,66 2495,0 2496,0 "/>
  <polygon class="fil2" points="2488,66 2493,0 2495,0 "/>
  <polygon class="fil2" points="2490,21 2492,0 2492,0 "/>
  <polygon class="fil1" points="5754,1225 6000,1156 6000,1158 "/>
  <polygon class="fil2" points="5057,1421 5754,1225 6000,1158 6000,1194 "/>
  <polygon class="fil2" points="4740,561 5569,0 5641,0 "/>
  <polygon class="fil1" points="615,1678 46,1535 0,1522 0,1499 "/>
  <polygon class="fil2" points="46,1535 0,1524 0,1522 "/>
  <polygon class="fil1" points="2396,4000 2392,4000 2389,3896 "/>
  <polygon class="fil1" points="4625,4000 4570,4000 3884,3419 "/>
  <polygon class="fil3" points="2653,538 2758,0 2779,0 "/>
  <polygon class="fil1" points="2386,602 2394,328 2404,148 2413,0 2413,0 2397,438 "/>
  <polygon class="fil2" points="2394,328 2394,317 2404,148 "/>
  <polygon class="fil2" points="2404,148 2413,0 2413,0 "/>
  <polygon class="fil3" points="2394,317 2404,0 2413,0 2404,148 "/>
  <polygon class="fil1" points="2381,872 2397,438 2421,86 2398,646 "/>
  <polygon class="fil2" points="2397,438 2413,0 2416,0 2415,27 2417,0 2424,0 2421,86 "/>
  <polygon class="fil1" points="2966,1093 3367,427 3481,250 3367,440 3653,0 3680,0 3664,25 3681,0 3682,0 "/>
  <polygon class="fil2" points="3664,25 3680,0 3681,0 "/>
  <polygon class="fil2" points="3367,440 3481,250 3642,0 3653,0 "/>
  <polygon class="fil1" points="3609,4000 3579,4000 3218,3454 "/>
  <polygon class="fil1" points="3304,4000 3285,4000 2928,3335 2790,3056 "/>
  <polygon class="fil2" points="3285,4000 3266,4000 3229,3931 3239,3952 3172,3826 2928,3335 "/>
  <polygon class="fil3" points="3266,4000 3264,4000 3239,3952 3229,3931 "/>
  <polygon class="fil1" points="2142,4000 2139,4000 2147,3927 "/>
  <polygon class="fil2" points="0,2240 147,2236 0,2245 "/>
  <polygon class="fil1" points="4659,2114 4412,2112 4969,2096 5392,2095 "/>
  <polygon class="fil2" points="4780,2115 4659,2114 5392,2095 5696,2094 5207,2108 5263,2109 "/>
  <polygon class="fil3" points="5263,2109 5207,2108 5696,2094 6000,2094 6000,2099 "/>
  <polygon class="fil2" points="4969,2096 6000,2064 6000,2079 5392,2095 "/>
  <polygon class="fil3" points="5392,2095 6000,2079 6000,2086 5696,2094 "/>
  <polygon class="fil4" points="5696,2094 6000,2086 6000,2094 "/>
  <polygon class="fil2" points="4351,4000 4330,4000 4073,3755 "/>
  <polygon class="fil1" points="3350,453 3618,0 3624,0 3367,427 "/>
  <polygon class="fil2" points="3367,427 3624,0 3630,0 3481,250 "/>
  <polygon class="fil3" points="3481,250 3630,0 3642,0 "/>
  <polygon class="fil1" points="3257,1705 4412,1155 4711,1022 3435,1628 "/>
  <polygon class="fil2" points="4412,1155 6000,399 6000,410 4711,1022 "/>
  <polygon class="fil2" points="3435,1628 4711,1022 6000,449 6000,512 "/>
  <polygon class="fil3" points="4711,1022 6000,410 6000,449 "/>
  <polygon class="fil1" points="3457,1570 6000,254 6000,371 5828,455 "/>
  <polygon class="fil2" points="5828,455 6000,371 6000,374 "/>
  <polygon class="fil1" points="3495,584 3923,0 3936,0 3592,462 "/>
  <polygon class="fil2" points="3592,462 3936,0 3951,0 3819,176 "/>
  <polygon class="fil3" points="3819,176 3951,0 3958,0 "/>
  <polygon class="fil1" points="6000,2992 4816,2701 4928,2724 6000,2980 "/>
  <polygon class="fil1" points="6000,2944 4928,2724 4142,2536 6000,2906 6000,2907 5205,2754 6000,2939 "/>
  <polygon class="fil2" points="6000,2939 5205,2754 6000,2907 "/>
  <polygon class="fil2" points="6000,2980 4928,2724 6000,2944 "/>
  <polygon class="fil1" points="6000,2722 5087,2585 4209,2432 4757,2506 6000,2705 "/>
  <polygon class="fil2" points="6000,2745 5087,2585 6000,2722 "/>
  <polygon class="fil1" points="1094,103 1030,0 1035,0 1043,14 "/>
  <polygon class="fil2" points="1043,14 1035,0 1035,0 "/>
  <polygon class="fil1" points="3550,4000 3544,4000 3479,3898 "/>
  <polygon class="fil1" points="3458,4000 3451,4000 3076,3397 3072,3389 "/>
  <polygon class="fil2" points="3451,4000 3427,4000 3076,3397 "/>
  <polygon class="fil3" points="5108,1447 6000,1209 6000,1245 "/>
  <polygon class="fil1" points="4771,4000 4698,4000 3811,3290 "/>
  <polygon class="fil1" points="4714,2045 6000,1972 6000,2021 "/>
  <polygon class="fil1" points="4906,2527 4757,2506 3441,2295 3448,2296 "/>
  <polygon class="fil2" points="6000,2676 4906,2527 3448,2296 5198,2509 6000,2620 "/>
  <polygon class="fil3" points="6000,2620 5198,2509 6000,2606 "/>
  <polygon class="fil2" points="6000,2705 4757,2506 4906,2527 6000,2699 "/>
  <polygon class="fil3" points="6000,2699 4906,2527 6000,2676 "/>
  <polygon class="fil3" points="2415,27 2416,0 2417,0 "/>
  <polygon class="fil1" points="1826,4000 1822,4000 1853,3888 "/>
  <polygon class="fil1" points="1975,726 1878,351 1799,0 1816,0 "/>
  <polygon class="fil2" points="1878,351 1787,0 1799,0 "/>
  <polygon class="fil1" points="5764,4000 5695,4000 3900,2990 4430,3263 "/>
  <polygon class="fil2" points="5867,4000 5764,4000 4430,3263 "/>
  <polygon class="fil1" points="0,2433 89,2423 0,2436 "/>
  <polygon class="fil1" points="0,2903 451,2761 0,2922 "/>
  <polygon class="fil1" points="417,344 40,0 55,0 254,184 "/>
  <polygon class="fil2" points="254,184 55,0 67,0 "/>
  <polygon class="fil1" points="4126,1083 4827,658 5032,542 4224,1028 "/>
  <polygon class="fil2" points="4224,1028 5032,542 5984,0 6000,0 6000,43 "/>
  <polygon class="fil2" points="4827,658 5758,94 5921,0 5931,0 5032,542 "/>
  <polygon class="fil3" points="5032,542 5931,0 5984,0 "/>
  <polygon class="fil3" points="5758,94 5913,0 5921,0 "/>
  <polygon class="fil1" points="4216,1453 6000,775 6000,811 4646,1308 "/>
  <polygon class="fil2" points="4646,1308 6000,811 6000,821 4839,1243 "/>
  <polygon class="fil3" points="4839,1243 6000,821 6000,851 "/>
  <polygon class="fil2" points="6000,3168 5350,2990 6000,3162 "/>
  <polygon class="fil2" points="6000,3206 5689,3119 4814,2851 6000,3201 "/>
  <polygon class="fil3" points="6000,3201 4814,2851 4746,2831 5350,2990 6000,3168 "/>
  <polygon class="fil1" points="0,3069 1134,2624 0,3119 "/>
  <polygon class="fil1" points="4411,1663 4468,1649 4838,1572 4943,1551 4809,1582 "/>
  <polygon class="fil2" points="4468,1649 5100,1494 5533,1399 4744,1591 4838,1572 "/>
  <polygon class="fil2" points="4838,1572 4965,1546 4943,1551 "/>
  <polygon class="fil3" points="4744,1591 5533,1399 6000,1296 6000,1307 4965,1546 4838,1572 "/>
  <polygon class="fil3" points="5100,1494 6000,1274 6000,1285 5533,1399 "/>
  <polygon class="fil4" points="5533,1399 6000,1285 6000,1296 "/>
  <polygon class="fil2" points="4809,1582 4943,1551 6000,1335 6000,1337 "/>
  <polygon class="fil3" points="4943,1551 4965,1546 6000,1330 6000,1335 "/>
  <polygon class="fil4" points="4965,1546 6000,1307 6000,1330 "/>
  <polygon class="fil1" points="2269,4000 2245,4000 2275,3359 "/>
  <polygon class="fil1" points="1209,4000 1172,4000 1616,3291 "/>
  <polygon class="fil1" points="5347,4000 5345,4000 4914,3745 5310,4000 5191,4000 3420,2836 "/>
  <polygon class="fil2" points="5345,4000 5310,4000 4914,3745 "/>
  <polygon class="fil1" points="6000,2530 4362,2367 3915,2310 6000,2495 "/>
  <polygon class="fil2" points="6000,2575 4362,2367 6000,2530 "/>
  <polygon class="fil1" points="1992,1290 1479,0 1501,0 1819,809 1604,194 "/>
  <polygon class="fil2" points="1819,809 1501,0 1535,0 1604,194 "/>
  <polygon class="fil1" points="6000,3280 4920,2950 3756,2574 3849,2600 6000,3278 "/>
  <polygon class="fil2" points="6000,3278 3849,2600 5689,3119 6000,3214 "/>
  <polygon class="fil2" points="6000,3300 4920,2950 6000,3280 "/>
  <polygon class="fil3" points="6000,3214 5689,3119 6000,3206 "/>
  <polygon class="fil1" points="0,2287 391,2267 0,2302 "/>
  <polygon class="fil1" points="3212,1400 4863,0 4873,0 3745,961 4297,526 3817,926 "/>
  <polygon class="fil2" points="3745,961 4873,0 4928,0 4297,526 "/>
  <polygon class="fil2" points="3817,926 4297,526 4964,0 4993,0 4918,62 "/>
  <polygon class="fil3" points="4918,62 4993,0 4996,0 "/>
  <polygon class="fil3" points="4297,526 4928,0 4964,0 "/>
  <polygon class="fil1" points="2393,760 2398,646 2446,0 2450,0 2440,167 "/>
  <polygon class="fil2" points="2440,167 2450,0 2453,0 "/>
  <polygon class="fil2" points="2398,646 2421,86 2427,0 2446,0 "/>
  <polygon class="fil3" points="2421,86 2424,0 2427,0 "/>
  <polygon class="fil1" points="1784,1081 1220,0 1267,0 1344,154 "/>
  <polygon class="fil2" points="1344,154 1267,0 1271,0 "/>
  <polygon class="fil1" points="834,4000 833,4000 902,3916 "/>
  <polygon class="fil2" points="876,4000 834,4000 902,3916 1402,3300 "/>
  <polygon class="fil1" points="0,3504 301,3320 820,3004 798,3016 910,2950 1090,2849 114,3444 0,3510 "/>
  <polygon class="fil2" points="0,3510 114,3444 0,3514 "/>
  <polygon class="fil2" points="0,3503 301,3320 0,3504 "/>
  <polygon class="fil2" points="150,3402 798,3016 820,3004 301,3320 348,3291 "/>
  <polygon class="fil3" points="0,3491 150,3402 348,3291 301,3320 0,3503 "/>
  <polygon class="fil2" points="95,3408 188,3353 910,2950 798,3016 "/>
  <polygon class="fil3" points="0,3475 98,3415 0,3470 0,3464 95,3408 798,3016 150,3402 0,3487 "/>
  <polygon class="fil4" points="0,3470 98,3415 0,3475 "/>
  <polygon class="fil4" points="0,3487 150,3402 0,3491 "/>
  <polygon class="fil3" points="0,3458 188,3353 95,3408 0,3461 "/>
  <polygon class="fil4" points="0,3461 95,3408 0,3464 "/>
  <polygon class="fil1" points="0,3184 511,2943 426,2979 1453,2530 220,3126 461,3007 0,3213 "/>
  <polygon class="fil2" points="0,3165 426,2979 511,2943 0,3184 "/>
  <polygon class="fil2" points="0,3213 461,3007 220,3126 0,3232 "/>
  <polygon class="fil1" points="6000,3466 5120,3134 6000,3428 "/>
  <polygon class="fil1" points="843,1381 0,966 0,926 "/>
  <polygon class="fil1" points="3129,4000 3104,4000 2876,3444 3127,3997 "/>
  <polygon class="fil1" points="1791,1413 1248,687 758,0 768,0 1266,670 1227,614 1322,742 912,140 "/>
  <polygon class="fil2" points="1248,687 733,0 758,0 "/>
  <polygon class="fil2" points="1266,670 768,0 774,0 1227,614 "/>
  <polygon class="fil1" points="1292,1737 0,1258 0,1210 266,1312 "/>
  <polygon class="fil1" points="0,2691 1012,2460 359,2635 0,2721 "/>
  <polygon class="fil2" points="0,2721 359,2635 0,2732 "/>
  <polygon class="fil1" points="1672,1374 1449,1119 528,0 541,0 1038,589 "/>
  <polygon class="fil1" points="1279,4000 1253,4000 1565,3466 "/>
  <polygon class="fil1" points="912,140 815,0 816,0 "/>
  <polygon class="fil2" points="1322,742 1227,614 807,0 815,0 912,140 "/>
  <polygon class="fil3" points="1227,614 774,0 807,0 "/>
  <polygon class="fil1" points="3785,612 3971,423 3928,469 "/>
  <polygon class="fil2" points="3928,469 3971,423 4388,0 4395,0 "/>
  <polygon class="fil2" points="3450,948 4326,0 4372,0 3971,423 3785,612 "/>
  <polygon class="fil3" points="3971,423 4372,0 4388,0 "/>
  <polygon class="fil1" points="1462,1092 1038,589 563,0 575,0 871,353 597,0 610,0 "/>
  <polygon class="fil2" points="871,353 575,0 597,0 "/>
  <polygon class="fil2" points="1038,589 541,0 563,0 "/>
  <polygon class="fil1" points="1988,4000 1956,4000 2120,3185 "/>
  <polygon class="fil1" points="3698,4000 3697,4000 3684,3982 "/>
  <polygon class="fil1" points="5807,3888 4948,3471 4647,3312 5271,3612 "/>
  <polygon class="fil2" points="6000,3982 5807,3888 5271,3612 6000,3961 "/>
  <polygon class="fil2" points="6000,4000 5951,4000 4948,3471 5807,3888 6000,3988 "/>
  <polygon class="fil3" points="6000,3988 5807,3888 6000,3982 "/>
  <polygon class="fil1" points="3155,979 3538,431 3859,0 3898,0 "/>
  <polygon class="fil2" points="3538,431 3841,0 3859,0 "/>
  <polygon class="fil1" points="3129,4000 3129,4000 3127,3997 3126,3995 "/>
  <polygon class="fil2" points="3129,4000 3129,4000 3127,3997 "/>
  <polygon class="fil1" points="2793,206 2840,0 2849,0 "/>
  <polygon class="fil2" points="990,2106 0,2102 0,2064 "/>
  <polygon class="fil1" points="1968,1071 1850,725 1622,0 1646,0 "/>
  <polygon class="fil2" points="1850,725 1601,0 1622,0 "/>
  <polygon class="fil1" points="340,1627 0,1546 0,1539 177,1582 "/>
  <polygon class="fil2" points="177,1582 0,1539 0,1532 "/>
  <polygon class="fil1" points="4033,653 4762,0 4775,0 4597,160 4789,0 4791,0 4549,215 4810,0 4821,0 "/>
  <polygon class="fil2" points="4549,215 4791,0 4810,0 "/>
  <polygon class="fil2" points="4597,160 4775,0 4789,0 "/>
  <polygon class="fil1" points="4708,1211 6000,683 6000,693 5062,1076 6000,734 6000,739 "/>
  <polygon class="fil2" points="5062,1076 6000,693 6000,734 "/>
  <polygon class="fil1" points="0,2445 831,2344 0,2477 "/>
  <polygon class="fil1" points="175,4000 150,4000 491,3715 "/>
  <polygon class="fil1" points="573,712 0,261 0,224 "/>
  <polygon class="fil1" points="4252,4000 4245,4000 4163,3918 "/>
  <polygon class="fil1" points="2265,179 2258,0 2264,0 "/>
  <polygon class="fil1" points="2157,4000 2156,4000 2164,3918 2162,3946 "/>
  <polygon class="fil2" points="2159,4000 2157,4000 2162,3946 "/>
  <polygon class="fil1" points="1203,1406 0,645 0,608 726,1079 "/>
  <polygon class="fil2" points="726,1079 0,608 0,580 "/>
  <polygon class="fil1" points="3246,4000 3238,4000 2977,3457 3026,3549 "/>
  <polygon class="fil2" points="3259,4000 3246,4000 3026,3549 3172,3826 "/>
  <polygon class="fil3" points="3262,4000 3259,4000 3172,3826 3239,3952 "/>
  <polygon class="fil4" points="3264,4000 3262,4000 3239,3952 "/>
  <polygon class="fil1" points="2902,1016 3150,565 3128,607 "/>
  <polygon class="fil2" points="2895,1028 3413,0 3442,0 3150,565 2902,1016 "/>
  <polygon class="fil2" points="3128,607 3150,565 3460,0 3463,0 "/>
  <polygon class="fil3" points="3150,565 3442,0 3460,0 "/>
  <polygon class="fil1" points="407,1366 266,1312 0,1202 0,1192 "/>
  <polygon class="fil2" points="266,1312 0,1210 0,1202 "/>
  <polygon class="fil1" points="348,914 0,707 0,688 "/>
  <polygon class="fil1" points="1680,1399 436,0 474,0 1449,1119 "/>
  <polygon class="fil2" points="1449,1119 474,0 528,0 "/>
  <polygon class="fil1" points="0,3886 437,3544 0,3860 0,3838 1284,2909 118,3822 0,3909 "/>
  <polygon class="fil2" points="0,3909 118,3822 0,3914 "/>
  <polygon class="fil2" points="0,3860 437,3544 0,3886 "/>
  <polygon class="fil1" points="6000,2187 3185,2136 4472,2119 4439,2120 6000,2138 "/>
  <polygon class="fil2" points="6000,2138 4439,2120 4472,2119 4780,2115 6000,2125 "/>
  <polygon class="fil3" points="6000,2125 4780,2115 5263,2109 6000,2116 "/>
  <polygon class="fil4" points="6000,2116 5263,2109 6000,2099 "/>
 </g>
</svg>
